<svg width="147" height="28" viewBox="0 0 147 28" fill="none" xmlns="http://www.w3.org/2000/svg">
<mask id="mask0_29667_27449" style="mask-type:luminance" maskUnits="userSpaceOnUse" x="120" y="7" width="12" height="15">
<path fill-rule="evenodd" clip-rule="evenodd" d="M120.289 18.4426C120.289 18.2956 120.359 18.226 120.496 18.226H127.739V15.2656H122.759C122.065 15.2656 121.716 14.9223 121.716 14.2424V12.6524C121.716 12.5259 121.773 12.4657 121.899 12.4657H127.739V9.7824H121.666C120.953 9.7824 120.603 9.42209 120.603 8.68914V7.19558C120.603 7.06927 120.659 7.00903 120.786 7.00903H130.076C130.77 7.00903 131.119 7.34955 131.119 8.03618V20.8092C131.119 20.9353 131.06 21.0059 130.932 21.0059H121.353C120.64 21.0059 120.289 20.6624 120.289 19.9724V18.4426Z" fill="white"/>
</mask>
<g mask="url(#mask0_29667_27449)">
<path d="M120.289 18.4426C120.289 18.2956 120.359 18.226 120.496 18.226H127.739V15.2656H122.759C122.065 15.2656 121.716 14.9223 121.716 14.2424V12.6524C121.716 12.5259 121.773 12.4657 121.899 12.4657H127.739V9.7824H121.666C120.953 9.7824 120.603 9.42209 120.603 8.68914V7.19558C120.603 7.06927 120.659 7.00903 120.786 7.00903H130.076C130.77 7.00903 131.119 7.34955 131.119 8.03618V20.8092C131.119 20.9353 131.06 21.0059 130.932 21.0059H121.353C120.64 21.0059 120.289 20.6624 120.289 19.9724V18.4426Z" fill="white"/>
</g>
<path fill-rule="evenodd" clip-rule="evenodd" d="M49.4084 21.0022C50.1014 21.0022 50.452 20.6686 50.452 19.995V9.77874H53.9548C54.6583 9.77874 55.0116 9.43845 55.0116 8.752V7.19191C55.0116 7.06561 54.9419 7.00537 54.815 7.00537H43.5389C42.8455 7.00537 42.4922 7.34589 42.4922 8.04178V9.5922C42.4922 9.7185 42.5515 9.77874 42.6787 9.77874H47.0716V20.8055C47.0716 20.9316 47.1318 21.0022 47.2586 21.0022H49.4084Z" fill="white"/>
<path fill-rule="evenodd" clip-rule="evenodd" d="M64.7562 9.77715C65.9863 9.77715 67.2565 9.94373 67.2565 11.4604C67.2565 12.9403 66.0064 13.2804 64.7562 13.2804H61.4564V9.77715H64.7562ZM66.9832 20.7439C67.103 20.8905 67.2767 21.0006 67.4732 21.0006H71.0366C71.1029 21.0006 71.2602 21.0006 71.2602 20.8905C71.2602 20.7538 67.403 16.0569 67.0331 15.6004C69.2599 15.3471 70.6563 13.4869 70.6563 11.3238C70.6563 8.01027 68.3033 7.00378 65.3336 7.00378H59.1197C58.4365 7.00378 58.0766 7.33734 58.0766 8.03093V20.8039C58.0766 20.93 58.1366 21.0006 58.2632 21.0006H60.4131C61.0961 21.0006 61.4564 20.6671 61.4564 19.9703L61.4364 16.0203H63.2132L66.9832 20.7439Z" fill="white"/>
<path d="M64.7562 9.77715C65.9863 9.77715 67.2565 9.94373 67.2565 11.4604C67.2565 12.9403 66.0064 13.2804 64.7562 13.2804H61.4564V9.77715H64.7562ZM66.9832 20.7439C67.103 20.8905 67.2767 21.0006 67.4732 21.0006H71.0366C71.1029 21.0006 71.2602 21.0006 71.2602 20.8905C71.2602 20.7538 67.403 16.0569 67.0331 15.6004C69.2599 15.3471 70.6563 13.4869 70.6563 11.3238C70.6563 8.01027 68.3033 7.00378 65.3336 7.00378H59.1197C58.4365 7.00378 58.0766 7.33734 58.0766 8.03093V20.8039C58.0766 20.93 58.1366 21.0006 58.2632 21.0006H60.4131C61.0961 21.0006 61.4564 20.6671 61.4564 19.9703L61.4364 16.0203H63.2132L66.9832 20.7439Z" stroke="white" stroke-width="0.288" stroke-miterlimit="22.9256"/>
<path fill-rule="evenodd" clip-rule="evenodd" d="M82.3158 7.1474C82.2655 7.05009 82.1888 7.00061 82.0623 7.00061H80.0387C79.4255 7.00061 79.0322 7.20695 78.7324 7.91049L73.1451 20.7736C73.1253 20.8235 73.1157 20.8606 73.1157 20.8905C73.1157 20.9604 73.1658 21.0006 73.2724 21.0006H75.5856C76.3388 21.0006 76.7493 20.6473 77.0524 19.9301L77.6456 18.5403H83.6821L84.6284 20.7439C84.7089 20.9105 84.8357 21.0006 85.0022 21.0006H87.1289C87.7452 21.0006 88.0089 20.7736 88.0089 20.4904C88.0089 20.3441 87.9684 20.1672 87.8821 19.9703L82.3158 7.1474ZM80.6557 11.5805L82.5686 15.9807H78.7488L80.6557 11.5805Z" fill="white"/>
<path fill-rule="evenodd" clip-rule="evenodd" d="M101.315 21.0006C102.009 21.0006 102.359 20.6572 102.359 19.9671V18.4167C102.359 18.2904 102.302 18.2207 102.176 18.2207H97.2225C96.042 18.2207 95.1818 17.9209 94.6354 17.3039C94.0989 16.6903 93.8257 15.5869 93.8257 13.994C93.8257 12.3833 94.0885 11.2808 94.6255 10.6771C95.1721 10.0806 96.042 9.77715 97.2225 9.77715H101.315C102.085 9.77715 102.359 9.55373 102.359 8.73378V7.19033C102.359 7.06403 102.302 7.00378 102.176 7.00378H96.7349C94.6754 7.00378 93.0917 7.53062 91.9921 8.587C90.9124 9.65062 90.3554 11.4474 90.3453 13.994C90.3453 15.7038 90.599 17.0704 91.1057 18.0935C92.1086 20.1404 94.0386 21.0006 96.7349 21.0006H101.315Z" fill="white"/>
<path fill-rule="evenodd" clip-rule="evenodd" d="M107.564 21.0006C108.263 21.0006 108.617 20.6473 108.617 19.9336V7.15706C108.617 7.05009 108.557 7.00061 108.44 7.00061H106.23C105.53 7.00061 105.176 7.3535 105.176 8.06688V20.8538C105.176 20.9507 105.237 21.0006 105.363 21.0006H107.564ZM115.186 7.00061C114.669 7.00061 114.407 7.12064 114.083 7.4706L108.653 13.3374L113.606 20.5605C113.81 20.8734 114.047 21.0006 114.366 21.0006H117.55C117.696 21.0006 117.776 20.9507 117.776 20.8538C117.776 20.7736 117.746 20.6868 117.676 20.6001L112.61 13.5135L118.313 7.36386C118.4 7.2737 118.439 7.19751 118.439 7.1375C118.439 7.05009 118.343 7.00061 118.136 7.00061H115.186Z" fill="white"/>
<path fill-rule="evenodd" clip-rule="evenodd" d="M134.798 7.00378C134.104 7.00378 133.755 7.3443 133.755 8.03093V20.8039C133.755 20.93 133.815 21.0006 133.941 21.0006H140.158C141.508 21.0006 142.665 20.7736 143.622 20.3166C145.521 19.4102 146.555 17.4205 146.555 13.994C146.545 11.4474 145.988 9.65062 144.908 8.587C143.808 7.53062 142.225 7.00378 140.158 7.00378H134.798ZM137.135 18.2207V9.77715H139.668C140.855 9.77715 141.725 10.0806 142.275 10.6771C142.811 11.2808 143.074 12.3833 143.074 13.994C143.074 15.5869 142.801 16.6903 142.265 17.3039C141.715 17.9209 140.855 18.2207 139.668 18.2207H137.135Z" fill="white"/>
<mask id="mask1_29667_27449" style="mask-type:luminance" maskUnits="userSpaceOnUse" x="13" y="0" width="14" height="28">
<path fill-rule="evenodd" clip-rule="evenodd" d="M13.9058 0.486992V27.4531L19.9097 24.7263V8.12773C19.9097 8.00911 20.006 7.91315 20.1243 7.91315C20.1458 7.91315 20.1666 7.91617 20.1866 7.92259L26.9494 9.2963V3.69364L13.9058 0.486992Z" fill="white"/>
</mask>
<g mask="url(#mask1_29667_27449)">
<path d="M13.9058 0.486994V27.4531L19.9097 24.7263V8.12773C19.9097 8.00911 20.006 7.91315 20.1243 7.91315C20.1458 7.91315 20.1666 7.91617 20.1866 7.9226L26.9494 9.2963V3.69365L13.9058 0.486994Z" fill="white"/>
</g>
<mask id="mask2_29667_27449" style="mask-type:luminance" maskUnits="userSpaceOnUse" x="0" y="8" width="8" height="5">
<path fill-rule="evenodd" clip-rule="evenodd" d="M0.955783 9.62716L7.03699 12.0586V8.39153L0.955783 9.62716ZM0.097678 9.74079L0.0925037 9.73739L0.0935229 9.73785L0.097678 9.74079ZM0.069344 9.71911L0.062242 9.71276L0.0616748 9.71189L0.0598993 9.71027L0.0575197 9.70789L0.0579739 9.70834L0.0598993 9.71027L0.062242 9.71276L0.069344 9.71881V9.71911ZM0.0532516 9.70332L0.0510218 9.70037V9.70082L0.0532516 9.70332ZM0.0485292 9.69788L0.0466016 9.69535L0.0477729 9.69682L0.0485292 9.69788ZM0.0427854 9.69062L0.0404058 9.68768L0.0415772 9.6887L0.0427854 9.69062ZM0.0368548 9.6825L0.0346643 9.68001L0.0353814 9.68031L0.0368548 9.6825ZM0.0331909 9.67691L0.0312632 9.67438L0.0296399 9.67173L0.0293355 9.67128L0.0312632 9.67438L0.0322824 9.67589L0.0331909 9.67691ZM0.0182675 9.65092L0.0170962 9.64767L0.0172483 9.64842L0.0182675 9.65092ZM0.00867066 9.62557L0.00765148 9.62217L0.00795354 9.62319L0.00867066 9.62557ZM0.00674529 9.61892L0.00557393 9.61552L0.00485681 9.61272L0.00455475 9.61242L0.00557393 9.61552L0.00648012 9.61816L0.00674529 9.61892Z" fill="white"/>
</mask>
<g mask="url(#mask2_29667_27449)">
<path d="M0.955783 9.62716L7.03699 12.0586V8.39153L0.955783 9.62716ZM0.097678 9.74079L0.0925037 9.73739L0.0935229 9.73785L0.097678 9.74079ZM0.069344 9.71911L0.062242 9.71276L0.0616748 9.71189L0.0598993 9.71027L0.0575197 9.70789L0.0579739 9.70834L0.0598993 9.71027L0.062242 9.71276L0.069344 9.71881V9.71911ZM0.0532516 9.70332L0.0510218 9.70037V9.70082L0.0532516 9.70332ZM0.0485292 9.69788L0.0466016 9.69535L0.0477729 9.69682L0.0485292 9.69788ZM0.0427854 9.69062L0.0404058 9.68768L0.0415772 9.6887L0.0427854 9.69062ZM0.0368548 9.6825L0.0346643 9.68001L0.0353814 9.68031L0.0368548 9.6825ZM0.0331909 9.67691L0.0312632 9.67438L0.0296399 9.67173L0.0293355 9.67128L0.0312632 9.67438L0.0322824 9.67589L0.0331909 9.67691ZM0.0182675 9.65092L0.0170962 9.64767L0.0172483 9.64842L0.0182675 9.65092ZM0.00867066 9.62557L0.00765148 9.62217L0.00795354 9.62319L0.00867066 9.62557ZM0.00674529 9.61892L0.00557393 9.61552L0.00485681 9.61272L0.00455475 9.61242L0.00557393 9.61552L0.00648012 9.61816L0.00674529 9.61892Z" fill="white"/>
</g>
<path fill-rule="evenodd" clip-rule="evenodd" d="M0.958483 9.62477L7.03968 12.0562V8.38914L0.958483 9.62477ZM13.5878 27.9755L7.16647 25.0595C7.08736 25.0236 7.04059 24.9454 7.04014 24.8639L7.03999 12.5174L0.135209 9.75643C0.121307 9.75095 0.108463 9.74389 0.0962223 9.73546L0.0952031 9.73501C0.0882518 9.73017 0.0817519 9.72545 0.0757073 9.71997L0.0745359 9.7188L0.0720433 9.71672V9.71642L0.0649414 9.71038L0.0643741 9.70951L0.0625987 9.70788L0.0606733 9.70596L0.060219 9.7055L0.055951 9.70093L0.0537212 9.69844V9.69798L0.0512286 9.69549L0.0504723 9.69444L0.0493009 9.69296L0.0473733 9.69062H0.0469582L0.0454848 9.68824L0.0442765 9.68631L0.0431052 9.68529L0.0411775 9.68295L0.0407625 9.68219L0.0395542 9.68011L0.0380808 9.67793L0.0373637 9.67762L0.0358902 9.67453L0.0349817 9.6735L0.0339626 9.67199L0.0323393 9.66935L0.0320349 9.6689L0.0304116 9.66625L0.0293924 9.66478L0.0290903 9.66315L0.0271627 9.66051L0.0270105 9.66006L0.0255371 9.65711L0.0246701 9.65549L0.024368 9.65446L0.0225902 9.65137L0.0221383 9.65076L0.0209669 9.64853L0.0199477 9.64604L0.0197955 9.64528L0.0184743 9.64219L0.0178679 9.64102L0.0171508 9.63909L0.0159425 9.63599L0.0149233 9.63274L0.0140148 9.63127L0.013752 9.62964L0.0125414 9.6267L0.0121264 9.62628L0.01137 9.62318L0.0106529 9.6208L0.0103509 9.61978L0.00944468 9.61654L0.00917951 9.61578L0.00827332 9.61314L0.0075562 9.61034L0.00725414 9.61004L0.00695208 9.60649L0.00634564 9.60516L0.00593059 9.60324L0.00517428 9.59984C0.00237866 9.58582 0.00120825 9.57165 0.00120825 9.55779V9.55677V9.55129L0 3.52589C0 3.42011 0.0771826 3.33171 0.178732 3.3147L13.6324 0.00717735L13.6358 0.00604248L13.6362 0.00566483H13.6384L13.6415 0.00453377H13.6437L13.6471 0.00377846L13.6485 0.0033989L13.6521 0.00264359L13.6536 0.00226593L13.6579 0.00150871H13.6591L13.6633 0.00113106H13.6641L13.6685 0.000379562H13.6695H13.6739L13.6744 0H13.6791H13.6799H13.6845H13.6851H13.6898H13.6905H13.6951H13.6958H13.7004L13.7011 0.000379562H13.7057H13.7065L13.7107 0.00113106H13.7116L13.7161 0.00150871H13.7172L13.7211 0.00226593L13.7227 0.00264359L13.7265 0.0033989L13.7278 0.00377846L13.7312 0.00453377H13.7335L13.7363 0.00566483H13.7386L13.7392 0.00604248L13.7426 0.00717735L27.1962 3.3147C27.2974 3.33171 27.3749 3.42011 27.3749 3.52589V9.55779L27.3737 9.5681C27.373 9.57861 27.3715 9.58922 27.3696 9.59984L27.3692 9.60324L27.3684 9.60516L27.3681 9.60649L27.3677 9.61004L27.3673 9.61034L27.3666 9.61314L27.3658 9.61578V9.61654L27.3647 9.61978L27.3643 9.6208L27.3635 9.62318L27.3624 9.62628V9.6267L27.3613 9.62964L27.3609 9.63127L27.3601 9.63274L27.359 9.63599L27.3579 9.63909L27.3567 9.64102L27.3564 9.64219L27.3552 9.64528L27.3548 9.64604L27.3537 9.64853L27.3526 9.65076L27.3522 9.65137L27.3507 9.65446L27.3503 9.65549L27.3492 9.65711L27.348 9.66006L27.3477 9.66051L27.3458 9.66315L27.3454 9.66478L27.3443 9.66625L27.3428 9.6689L27.3424 9.66935L27.3409 9.67199L27.3397 9.6735L27.339 9.67453L27.3375 9.67732L27.3367 9.67793L27.3356 9.68011L27.3341 9.68219L27.3333 9.68265L27.3318 9.68529L27.3307 9.68631L27.3295 9.68824L27.3276 9.69062L27.3254 9.69296L27.3246 9.69444L27.3239 9.69549L27.3212 9.69798V9.69844L27.319 9.70078L27.3178 9.70225L27.3148 9.7055L27.314 9.70596L27.3125 9.70788L27.3106 9.70951L27.3099 9.71022L27.3031 9.71642V9.71672L27.3004 9.7188L27.2993 9.71997L27.2982 9.72099L27.2876 9.72896L27.2868 9.72972L27.285 9.73119L27.2797 9.73501L27.2785 9.73546L27.2744 9.73841L27.2714 9.74003C27.2615 9.74638 27.2506 9.75156 27.24 9.75628L20.3352 12.5174V24.8639C20.3344 24.9454 20.2876 25.0236 20.2086 25.0595L13.7872 27.9755L13.7859 27.9761L13.7851 27.9762L13.7841 27.977L13.7828 27.9777L13.7814 27.9785L13.7802 27.9789V27.9792L13.7786 27.9796L13.7771 27.9805L13.7757 27.9808L13.7745 27.9817L13.773 27.982L13.7715 27.983H13.7708L13.7699 27.9835L13.7685 27.9842L13.7671 27.9847L13.7662 27.9852L13.7654 27.9854L13.764 27.9857L13.7627 27.9866L13.7613 27.9869H13.7612L13.7594 27.9875L13.7581 27.9879L13.7566 27.9886L13.7562 27.9888H13.755L13.7534 27.9895L13.7521 27.99L13.7512 27.9903L13.7503 27.9904L13.7488 27.9912L13.7475 27.9915L13.7463 27.9919H13.746L13.7441 27.9923L13.7429 27.9926L13.7413 27.9934H13.741H13.7395L13.7382 27.9938L13.7363 27.9944H13.7358L13.7348 27.9946L13.7335 27.995L13.7317 27.9956L13.7305 27.9957H13.7301L13.7286 27.996L13.727 27.9962L13.7255 27.9968H13.7253L13.7239 27.9969H13.7221L13.7206 27.9974H13.7199L13.7187 27.9977L13.7172 27.9981H13.7156L13.7149 27.9982H13.714H13.7127L13.7118 27.9985L13.7107 27.9988H13.7094L13.7091 27.9991L13.7072 27.9993H13.7057H13.7042H13.7041L13.7023 27.9994L13.7009 27.9997H13.6989H13.6985H13.6976H13.6961H13.6941L13.693 28H13.6926H13.6907H13.6893H13.6874H13.6859H13.684H13.6824H13.682L13.6809 27.9997H13.6789H13.6774H13.6765H13.6756H13.6742L13.6725 27.9994L13.6708 27.9993H13.6706H13.6691H13.6674L13.666 27.9991L13.6656 27.9988H13.6641L13.6629 27.9985L13.6625 27.9982H13.661H13.6601L13.6591 27.9981H13.6578L13.656 27.9977L13.6548 27.9974H13.6544L13.6529 27.9969H13.651L13.6496 27.9968L13.648 27.9962L13.6464 27.996L13.6448 27.9957H13.644L13.643 27.9956L13.6415 27.995L13.64 27.9946L13.639 27.9944H13.6384L13.6369 27.9938L13.6353 27.9934H13.6338H13.6335L13.6324 27.9926L13.6304 27.9923L13.6288 27.9919L13.6276 27.9915L13.6262 27.9912L13.6244 27.9904L13.6237 27.9903L13.6228 27.99L13.6215 27.9895L13.6198 27.9888H13.6187L13.6182 27.9886L13.6169 27.9879L13.6153 27.9875L13.6136 27.9869L13.6125 27.9866L13.611 27.9857L13.6094 27.9854L13.6088 27.9852L13.6079 27.9847L13.6065 27.9842L13.6051 27.9835L13.6042 27.983H13.6034L13.6018 27.982L13.6008 27.9817L13.5993 27.9808H13.5992L13.5977 27.9805L13.5961 27.9796L13.595 27.9792L13.5946 27.9789L13.5934 27.9785L13.5918 27.9777L13.5905 27.977L13.5899 27.9762L13.5892 27.9761L13.5878 27.9755ZM13.4728 0.486969V27.4531L7.46885 24.7262V12.3748V12.3722V8.12771C7.46885 8.00909 7.37293 7.91313 7.25427 7.91313C7.23289 7.91313 7.21192 7.91615 7.19212 7.92257L0.429166 9.29628V3.69362L13.4728 0.486969ZM13.9022 0.486969V27.4531L19.906 24.7262V8.12771C19.906 8.00909 20.0024 7.91313 20.1206 7.91313C20.1421 7.91313 20.1629 7.91615 20.1829 7.92257L26.9457 9.29628V3.69362L13.9022 0.486969ZM20.3352 12.0562L26.4164 9.62477L20.3352 8.38914V12.0562Z" fill="white"/>
</svg>
